<svg width="128" height="128" viewBox="0 0 128 128" fill="none" xmlns="http://www.w3.org/2000/svg">
<g filter="url(#filter0_d_101_8)">
<path d="M106.951 14.205L65.6646 25.3832C64.6152 25.6641 62.3354 25.661 61.2923 25.3676L21.0675 14.2268C17.4791 13.2373 14 15.8251 14 19.5209V95.4238C14 98.5547 16.3735 101.548 19.3966 102.391L59.6215 113.535C60.6989 113.835 62.0824 114 63.519 114C64.5028 114 65.9582 113.925 67.2979 113.557L108.585 102.379C111.617 101.561 114 98.5703 114 95.4269V19.5209C114.003 15.8282 110.527 13.2342 106.951 14.205ZM60.877 107.398L20.9675 96.3696C20.6677 96.2885 20.243 95.736 20.243 95.4238V20.5042L59.6184 31.3858C59.9994 31.492 60.4272 31.5763 60.8738 31.6449V107.401L60.877 107.398ZM107.754 95.4238C107.754 95.7329 107.248 96.2666 106.948 96.3509L67.1199 107.133V31.4452C67.1761 31.4295 67.2386 31.4233 67.2948 31.4077L107.751 20.4699L107.754 95.4238ZM76.6858 49.7841C76.9669 49.7841 77.2542 49.7497 77.5353 49.6686L99.3904 43.5192C101.052 43.051 102.02 41.3279 101.552 39.6672C101.083 38.0066 99.3498 37.0452 97.6977 37.5071L75.8426 43.6565C74.1811 44.1248 73.213 45.8478 73.6815 47.5085C74.0687 48.8851 75.3211 49.7841 76.6858 49.7841ZM76.6889 68.5132C76.97 68.5132 77.2573 68.4757 77.5384 68.3977L99.3935 62.2483C101.055 61.7801 102.023 60.057 101.555 58.3964C101.086 56.7357 99.3529 55.7743 97.7008 56.2331L75.8457 62.3825C74.1843 62.8508 73.2161 64.5738 73.6846 66.2314C74.0718 67.6111 75.3242 68.5101 76.6889 68.5101V68.5132ZM76.6889 87.2423C76.97 87.2423 77.2573 87.2049 77.5384 87.1268L99.3935 80.9774C101.055 80.5061 102.023 78.7861 101.555 77.1255C101.086 75.4648 99.3529 74.5034 97.7008 74.9654L75.8457 81.1148C74.1843 81.5861 73.2161 83.3061 73.6846 84.9667C74.0718 86.3433 75.3242 87.2423 76.6889 87.2423ZM52.5447 43.6565L30.6896 37.5071C29.0375 37.0483 27.3042 38.0097 26.8357 39.6672C26.3673 41.3248 27.3354 43.0478 28.9969 43.5192L50.852 49.6686C51.133 49.7466 51.4172 49.7841 51.6983 49.7841C53.0631 49.7841 54.3154 48.8851 54.7027 47.5085C55.168 45.851 54.203 44.1279 52.5384 43.6565H52.5447ZM52.5447 62.3857L30.6896 56.2363C29.0375 55.7743 27.3042 56.7388 26.8357 58.3995C26.3673 60.0601 27.3354 61.7801 28.9969 62.2514L50.852 68.4008C51.133 68.482 51.4172 68.5163 51.6983 68.5163C53.0631 68.5163 54.3154 67.6173 54.7027 66.2376C55.168 64.5801 54.203 62.857 52.5384 62.3857H52.5447ZM52.5447 81.1148L30.6896 74.9654C29.0375 74.5034 27.3042 75.4679 26.8357 77.1255C26.3673 78.783 27.3354 80.5061 28.9969 80.9774L50.852 87.1268C51.133 87.208 51.4172 87.2423 51.6983 87.2423C53.0631 87.2423 54.3154 86.3433 54.7027 84.9636C55.168 83.303 54.203 81.583 52.5384 81.1117L52.5447 81.1148Z" fill="#C13FD7"/>
</g>
<defs>
<filter id="filter0_d_101_8" x="-4" y="0" width="136" height="136" filterUnits="userSpaceOnUse" color-interpolation-filters="sRGB">
<feFlood flood-opacity="0" result="BackgroundImageFix"/>
<feColorMatrix in="SourceAlpha" type="matrix" values="0 0 0 0 0 0 0 0 0 0 0 0 0 0 0 0 0 0 127 0" result="hardAlpha"/>
<feOffset dy="4"/>
<feGaussianBlur stdDeviation="2"/>
<feComposite in2="hardAlpha" operator="out"/>
<feColorMatrix type="matrix" values="0 0 0 0 0 0 0 0 0 0 0 0 0 0 0 0 0 0 0.25 0"/>
<feBlend mode="normal" in2="BackgroundImageFix" result="effect1_dropShadow_101_8"/>
<feBlend mode="normal" in="SourceGraphic" in2="effect1_dropShadow_101_8" result="shape"/>
</filter>
</defs>
</svg>
